<svg width="29" height="41" viewBox="0 0 29 41" fill="none" xmlns="http://www.w3.org/2000/svg">
<path d="M2.58823 36.9191L0 7.88924H28.44L25.8492 36.9146L14.2026 40.1432L2.58823 36.9191Z" fill="#E44D26"/>
<path d="M14.22 37.6753L23.6307 35.0662L25.845 10.2632H14.22V37.6753Z" fill="#F16529"/>
<path d="M14.22 21.0299H9.50853L9.18351 17.3836H14.22V13.8232H5.29231L5.37727 14.7786L6.25256 24.59H14.22V21.0299ZM14.22 30.2762L14.2042 30.2804L10.2393 29.2094L9.98576 26.3702H6.41153L6.91032 31.9605L14.2036 33.9852L14.22 33.9804V30.2762Z" fill="#EBEBEB"/>
<path d="M2.64616 0H4.45531V1.78792H6.11065V0H7.92013V5.41331H6.11065V3.60061H4.45564V5.41331H2.64616V0ZM10.2992 1.79532H8.70629V0H13.7022V1.79532H12.1087V5.41331H10.2992V1.79532ZM14.4951 0H16.3815L17.5423 1.90216L18.7017 0H20.5891V5.41331H18.7867V2.73015L17.5423 4.65483H17.5107L16.2654 2.73015V5.41331H14.4948V0H14.4951ZM21.4898 0H23.2996V3.62411H25.844V5.41363H21.4898V0Z" fill="black"/>
<path d="M14.2078 21.0299V24.59H18.592L18.1788 29.2075L14.2078 30.2794V33.9833L21.5068 31.9605L21.5602 31.3587L22.3969 21.9857L22.4838 21.0299H21.5242H14.2078ZM14.2078 13.8232V17.3836H22.8079L22.879 16.5833L23.0415 14.7786L23.1268 13.8232H14.2078Z" fill="white"/>
</svg>
