<svg width="29" height="26" viewBox="0 0 29 26" fill="none" xmlns="http://www.w3.org/2000/svg">
<path d="M23.3834 8.20135C23.0884 8.0998 22.7826 8.00371 22.4679 7.91285C22.5196 7.7017 22.5671 7.49328 22.6093 7.28841C23.3023 3.92437 22.8492 1.21428 21.3019 0.322004C19.8183 -0.533572 17.3919 0.358504 14.9413 2.49114C14.7057 2.69621 14.4694 2.91334 14.2332 3.14089C14.0758 2.99033 13.9186 2.84484 13.7619 2.70568C11.1937 0.425326 8.6194 -0.535647 7.07363 0.359212C5.59139 1.21727 5.15244 3.76501 5.77627 6.95314C5.83651 7.26108 5.90692 7.57555 5.98655 7.89528C5.62222 7.9987 5.27049 8.10896 4.93395 8.22625C1.92296 9.27602 0 10.9213 0 12.6278C0 14.3903 2.0643 16.1582 5.20048 17.2301C5.44798 17.3147 5.70479 17.3947 5.96944 17.4706C5.88354 17.8164 5.80882 18.1553 5.74609 18.4858C5.15128 21.6186 5.61579 24.1062 7.09408 24.9588C8.62102 25.8393 11.1836 24.9343 13.679 22.753C13.8762 22.5806 14.0742 22.3978 14.2724 22.2061C14.5295 22.4536 14.7861 22.6878 15.0413 22.9075C17.4583 24.9875 19.8456 25.8273 21.3225 24.9723C22.8479 24.0893 23.3436 21.417 22.7 18.1658C22.6509 17.9175 22.5937 17.6639 22.5294 17.4057C22.7094 17.3525 22.8861 17.2976 23.0583 17.2405C26.3187 16.1602 28.44 14.4139 28.44 12.6278C28.44 10.9151 26.455 9.25875 23.3834 8.20135ZM22.6762 16.0872C22.5207 16.1387 22.3612 16.1885 22.1986 16.2367C21.8386 15.0972 21.3529 13.8856 20.7584 12.6337C21.3257 11.4117 21.7927 10.2155 22.1425 9.08345C22.4335 9.16763 22.7158 9.25643 22.9879 9.35013C25.6197 10.2561 27.2251 11.5957 27.2251 12.6278C27.2251 13.7272 25.4913 15.1544 22.6762 16.0872ZM21.5082 18.4018C21.7928 19.8394 21.8334 21.1392 21.6449 22.1553C21.4755 23.0684 21.1349 23.6771 20.7137 23.9209C19.8174 24.4397 17.9007 23.7653 15.8337 21.9865C15.5967 21.7826 15.358 21.5649 15.1186 21.3345C15.9199 20.458 16.7208 19.4392 17.5025 18.3076C18.8774 18.1856 20.1763 17.9861 21.3542 17.7138C21.4122 17.9479 21.4638 18.1774 21.5082 18.4018ZM9.69584 23.8312C8.82017 24.1405 8.12273 24.1494 7.70115 23.9063C6.80406 23.3888 6.43112 21.3916 6.93983 18.7124C6.9981 18.4056 7.06745 18.0904 7.14739 17.7682C8.31242 18.0259 9.60183 18.2112 10.98 18.323C11.7669 19.4302 12.591 20.448 13.4214 21.3392C13.2399 21.5143 13.0592 21.6811 12.8795 21.8382C11.7761 22.8027 10.6703 23.4871 9.69584 23.8312ZM5.59342 16.0805C4.20665 15.6065 3.06141 14.9905 2.27641 14.3183C1.57103 13.7142 1.2149 13.1144 1.2149 12.6278C1.2149 11.5922 2.75884 10.2713 5.33387 9.37352C5.64632 9.26458 5.97339 9.16191 6.31282 9.06548C6.6687 10.2231 7.13554 11.4335 7.69892 12.6574C7.12825 13.8994 6.65477 15.1291 6.2954 16.3003C6.05343 16.2307 5.81899 16.1575 5.59342 16.0805ZM6.96859 6.71982C6.43411 3.98831 6.78908 1.92776 7.68232 1.4107C8.63377 0.859872 10.7377 1.64523 12.9552 3.61421C13.0969 3.74006 13.2392 3.87178 13.3819 4.00805C12.5556 4.89532 11.7391 5.90545 10.9592 7.00619C9.62163 7.13017 8.34127 7.32932 7.16409 7.596C7.09008 7.29828 7.02452 7.00579 6.96859 6.71982ZM19.2363 9.74904C18.9549 9.26296 18.666 8.78837 18.3715 8.32674C19.2789 8.44145 20.1483 8.59372 20.9647 8.78006C20.7196 9.56563 20.4141 10.387 20.0545 11.229C19.7965 10.7392 19.5237 10.2454 19.2363 9.74904ZM14.2336 4.87634C14.794 5.48346 15.3552 6.1613 15.9072 6.89674C15.3509 6.87047 14.7878 6.8568 14.22 6.8568C13.6576 6.8568 13.0986 6.87017 12.5458 6.89598C13.0984 6.16737 13.6644 5.49044 14.2336 4.87634ZM9.19877 9.75744C8.91766 10.2449 8.64987 10.736 8.39595 11.2281C8.04214 10.389 7.73947 9.56391 7.49223 8.76721C8.30366 8.58562 9.16896 8.43715 10.0706 8.32461C9.77193 8.79049 9.48064 9.26868 9.19877 9.75744ZM10.0966 17.0177C9.16501 16.9137 8.2867 16.7729 7.47547 16.5963C7.72666 15.7854 8.03602 14.9427 8.39731 14.0855C8.65189 14.5772 8.92075 15.0686 9.20358 15.5571C9.49168 16.0548 9.7902 16.5423 10.0966 17.0177ZM14.2672 20.4649C13.6913 19.8436 13.117 19.1564 12.556 18.4171C13.1006 18.4385 13.6558 18.4494 14.22 18.4494C14.7997 18.4494 15.3727 18.4364 15.9368 18.4113C15.383 19.1638 14.8238 19.8521 14.2672 20.4649ZM20.0661 14.0419C20.4462 14.9083 20.7666 15.7466 21.0211 16.5437C20.1965 16.7318 19.3062 16.8833 18.3681 16.9959C18.6634 16.528 18.9548 16.0453 19.2412 15.5487C19.5309 15.0464 19.806 14.5432 20.0661 14.0419ZM18.1888 14.9418C17.7442 15.7126 17.2878 16.4485 16.8244 17.1431C15.9805 17.2034 15.1086 17.2345 14.22 17.2345C13.335 17.2345 12.4741 17.207 11.6451 17.1532C11.163 16.4495 10.6967 15.7114 10.255 14.9484C9.8144 14.1874 9.40901 13.4201 9.04159 12.657C9.40891 11.8921 9.81333 11.1239 10.2514 10.3643L10.2513 10.3644C10.6905 9.60279 11.1527 8.86835 11.6303 8.16905C12.4761 8.10511 13.3434 8.07175 14.2199 8.07175C15.1004 8.07175 15.9689 8.10536 16.8145 8.16986C17.2848 8.86405 17.7439 9.5961 18.1848 10.3578C18.6307 11.1281 19.0404 11.8912 19.4108 12.6397C19.0415 13.401 18.6327 14.1718 18.1888 14.9418ZM20.6951 1.37455C21.6474 1.92376 22.0178 4.13871 21.4194 7.0432C21.3813 7.22853 21.3383 7.4173 21.2916 7.6086C20.1117 7.33635 18.8304 7.13376 17.489 7.00791C16.7075 5.89507 15.8977 4.88337 15.0848 4.0075C15.3034 3.79726 15.5216 3.59679 15.7389 3.40762C17.8386 1.58039 19.801 0.858961 20.6951 1.37455ZM14.22 10.0882C15.6226 10.0882 16.7596 11.2252 16.7596 12.6278C16.7596 14.0304 15.6226 15.1674 14.22 15.1674C12.8174 15.1674 11.6804 14.0304 11.6804 12.6278C11.6804 11.2252 12.8174 10.0882 14.22 10.0882Z" fill="#00D8FF"/>
</svg>
