<svg width="29" height="41" viewBox="0 0 29 41" fill="none" xmlns="http://www.w3.org/2000/svg">
<path d="M22.2867 1.48614H19.9263L22.381 4.14994V5.41807H17.3251V3.93321H19.7795L17.3251 1.26941V0H22.2867V1.48614ZM16.3226 1.48614H13.9622L16.4169 4.14994V5.41807H11.3607V3.93321H13.8155L11.3607 1.26941V0H16.3226V1.48614ZM10.4171 1.54688H7.86993V3.87119H10.4171V5.41807H6.05933V0H10.4171V1.54688Z" fill="#131313"/>
<path d="M2.58836 36.9215L0 7.89135H28.44L25.8494 36.9167L14.2026 40.146L2.58836 36.9215Z" fill="#1572B6"/>
<path d="M14.2205 37.6778L23.6312 35.0687L25.8452 10.2652H14.2205V37.6778Z" fill="#33A9DC"/>
<path d="M14.2202 20.7826H18.9314L19.2572 17.1368H14.2202V13.5763H23.1482L23.0628 14.5315L22.1879 24.3428H14.2202V20.7826Z" fill="white"/>
<path d="M14.2416 30.0294L14.2259 30.0339L10.2607 28.963L10.0069 26.1234H6.43334L6.93234 31.7137L14.2253 33.7382L14.2419 33.7334L14.2416 30.0294Z" fill="#EBEBEB"/>
<path d="M18.629 24.1922L18.2 28.9604L14.2291 30.0323V33.7366L21.5281 31.7137L21.5818 31.1121L22.2013 24.1922H18.629Z" fill="white"/>
<path d="M14.2326 13.5763V17.1365H5.63257L5.56096 16.3364L5.39889 14.5315L5.31354 13.5763H14.2326ZM14.2202 20.783V24.3434H10.3052L10.2339 23.5433L10.0715 21.7381L9.98614 20.783H14.2202Z" fill="#EBEBEB"/>
</svg>
