<svg width="29" height="29" viewBox="0 0 29 29" fill="none" xmlns="http://www.w3.org/2000/svg">
<path d="M19.7058 19.5769C17.7061 23.6652 14.2044 26.4159 9.57184 27.3202C8.86153 27.4942 8.13235 27.5793 7.40107 27.5735C4.73482 27.5735 2.29075 26.4625 1.10427 24.6428C-0.488813 22.2188 -1.03095 17.0796 4.22156 13.2779C4.32821 13.8578 4.54596 14.6533 4.69038 15.1243C3.65928 15.8903 2.81529 16.8802 2.22187 18.0194C1.24425 19.9391 1.35312 21.8566 2.51072 23.6296C3.31059 24.825 4.57706 25.5516 6.2057 25.7738C8.2399 26.0312 10.3036 25.6426 12.1048 24.6628C14.9288 23.1786 16.8107 21.4056 18.0416 18.9815C17.6936 18.6218 17.4876 18.1482 17.4617 17.6484C17.4431 17.112 17.6381 16.5901 18.0038 16.1973C18.3695 15.8045 18.8762 15.5728 19.4125 15.5531H19.4881C20.0098 15.5505 20.5125 15.7486 20.8922 16.1063C21.272 16.464 21.4997 16.954 21.5282 17.4749C21.5568 17.9958 21.384 18.5078 21.0456 18.9048C20.7072 19.3019 20.2291 19.5537 19.7103 19.6081L19.7058 19.5769ZM26.0759 15.0888C28.7888 18.1638 28.8622 21.7833 27.8134 23.8829C26.8358 25.8004 24.2584 27.7201 20.7923 27.7201C19.1743 27.6871 17.5825 27.3043 16.1264 26.5981C16.6352 26.2359 17.3573 25.656 17.755 25.2938C18.8779 25.7803 20.0863 26.0386 21.31 26.0537C23.5541 26.0537 25.2538 25.005 26.267 23.0875C26.918 21.821 26.9558 20.3368 26.3403 18.8171C25.5851 16.9049 24.2413 15.2825 22.5032 14.1845C20.2228 12.6472 17.5345 11.8278 14.7844 11.8315H14.1333C13.9815 12.1822 13.7346 12.4833 13.4204 12.7009C13.1063 12.9184 12.7375 13.0437 12.3558 13.0624H12.287C11.7591 13.0559 11.2545 12.8439 10.8805 12.4714C10.5064 12.0989 10.2923 11.5952 10.2836 11.0673C10.2749 10.5395 10.4724 10.029 10.834 9.64443C11.1956 9.25981 11.6929 9.03132 12.2203 9.00749H12.2936C12.6611 9.00776 13.0215 9.10931 13.335 9.30098C13.6486 9.49265 13.9033 9.76703 14.0711 10.094H14.651C19.2725 10.094 23.3297 11.867 26.0759 15.0888ZM7.68991 20.1991C7.65186 19.8301 7.74125 19.4592 7.9432 19.1481C5.91685 15.6376 4.83258 11.1871 6.49676 6.55454C7.68991 3.07286 10.6939 0.719894 13.9512 0.719894C17.4262 0.719894 21.0456 3.76164 21.4789 9.62295C20.9367 9.44298 20.1457 9.17857 19.6703 9.08081C19.5525 7.16333 17.9328 2.3863 14.0956 2.4574C12.7202 2.49517 10.6939 3.14618 9.65182 4.48375C8.36283 6.08043 7.61298 8.04452 7.50994 10.094C7.26569 12.9042 7.92501 15.7189 9.39187 18.1283C9.47284 18.0987 9.55917 18.0866 9.64516 18.0927H9.71626C10.2537 18.083 10.773 18.2872 11.1598 18.6603C11.5467 19.0335 11.7695 19.545 11.7793 20.0824C11.789 20.6198 11.5848 21.1391 11.2117 21.526C10.8385 21.9129 10.327 22.1357 9.78958 22.1454H9.71626C9.19196 22.1436 8.68861 21.9394 8.31111 21.5756C7.93361 21.2118 7.71108 20.7163 7.68991 20.1924V20.1991Z" fill="#764ABC"/>
</svg>
