<svg width="29" height="29" viewBox="0 0 29 29" fill="none" xmlns="http://www.w3.org/2000/svg">
<path d="M0 0H28.44V28.44H0V0Z" fill="#F7DF1E"/>
<path d="M7.47791 23.7665L9.65434 22.4494C10.0742 23.1939 10.4562 23.8237 11.3723 23.8237C12.2506 23.8237 12.8042 23.4802 12.8042 22.144V13.0567H15.4769V22.1818C15.4769 24.9499 13.8543 26.2099 11.4869 26.2099C9.3489 26.2099 8.10784 25.1026 7.47787 23.7663" fill="black"/>
<path d="M16.9286 23.4802L19.1047 22.2202C19.6776 23.1557 20.4221 23.8429 21.7393 23.8429C22.8467 23.8429 23.5529 23.2892 23.5529 22.5256C23.5529 21.6093 22.8275 21.2847 21.6056 20.7503L20.9377 20.4638C19.0094 19.643 17.7303 18.6121 17.7303 16.4357C17.7303 14.4312 19.2575 12.9039 21.6439 12.9039C23.343 12.9039 24.5648 13.4958 25.4429 15.0421L23.362 16.3784C22.9038 15.5576 22.4076 15.2331 21.644 15.2331C20.8612 15.2331 20.3648 15.7294 20.3648 16.3784C20.3648 17.1802 20.8612 17.5049 22.0066 18.0013L22.6747 18.2876C24.9465 19.2613 26.2256 20.2539 26.2256 22.4874C26.2256 24.893 24.3357 26.2101 21.7966 26.2101C19.3149 26.2101 17.7112 25.0266 16.9286 23.4802Z" fill="black"/>
</svg>
